<?xml version="1.0" encoding="UTF-8" standalone="no"?>
<svg
   width="102"
   height="17"
   viewBox="0 0 102 17"
   fill="none"
   version="1.1"
   id="svg1"
   sodipodi:docname="ethz.svg"
   inkscape:version="1.3.2 (091e20ef0f, 2023-11-25)"
   xmlns:inkscape="http://www.inkscape.org/namespaces/inkscape"
   xmlns:sodipodi="http://sodipodi.sourceforge.net/DTD/sodipodi-0.dtd"
   xmlns="http://www.w3.org/2000/svg"
   xmlns:svg="http://www.w3.org/2000/svg">
  <sodipodi:namedview
     id="namedview1"
     pagecolor="#ffffff"
     bordercolor="#111111"
     borderopacity="1"
     inkscape:showpageshadow="0"
     inkscape:pageopacity="0"
     inkscape:pagecheckerboard="1"
     inkscape:deskcolor="#d1d1d1"
     inkscape:zoom="13.068627"
     inkscape:cx="51"
     inkscape:cy="8.531883"
     inkscape:window-width="2256"
     inkscape:window-height="1428"
     inkscape:window-x="0"
     inkscape:window-y="0"
     inkscape:window-maximized="1"
     inkscape:current-layer="g1" />
  <g
     clip-path="url(#clip0_1291_13154)"
     id="g1">
    <path
       d="M37.1358 6.45732H33.4235L34.7272 0H3.31751L0 16.6814H12.5218L13.3734 12.3765H5.97408L6.3972 10.2241H13.8014L14.5528 6.45732H7.16579L7.58784 4.30488H19.3453L16.8842 16.6814H21.9901L24.4502 4.30488H28.7365L26.2765 16.6814H31.4215L32.6946 10.2241H36.4058L35.1337 16.6814H40.254L43.5737 0H38.4395L37.1358 6.45732ZM59.0429 2.15244H60.751L61.1741 0H59.4741L59.0429 2.15244ZM63.4236 2.15244H65.1327L65.5547 0H63.8547L63.4236 2.15244ZM79.3994 2.15244H81.1074L81.5317 0H79.8306L79.3994 2.15244ZM87.9495 5.3316C84.9686 5.3316 82.877 7.45176 82.2076 11.1496C82.1021 11.7284 82.0484 12.3155 82.0469 12.9039C82.0469 15.4298 83.5643 17 86.0107 17C86.7111 17.0019 87.4047 16.8616 88.0498 16.5878C88.695 16.3139 89.2781 15.9119 89.7651 15.4061L89.7796 15.3899L88.8327 14.2233L88.8157 14.2029L88.797 14.2223C88.474 14.6289 88.0634 14.9575 87.5968 15.1834C87.1301 15.4094 86.6193 15.527 86.1008 15.5277C84.9349 15.5277 83.6885 14.8249 83.6885 12.8576C83.6928 12.2869 83.7531 11.7181 83.8685 11.1593C84.0438 9.96047 84.5466 8.83388 85.3213 7.90484C85.6333 7.55903 86.0141 7.28266 86.4399 7.09344C86.8649 6.90421 87.3239 6.80631 87.7889 6.80602C88.2351 6.78581 88.6771 6.89297 89.0647 7.11507C89.4523 7.33718 89.7694 7.66513 89.9793 8.06089L89.9929 8.08349L91.1991 7.05463L91.2161 7.03956L91.2033 7.02126C90.8565 6.47715 90.3729 6.03448 89.8017 5.73785C89.2305 5.44121 88.5913 5.30108 87.9495 5.3316ZM98.8508 5.08999C98.2515 5.06022 97.6531 5.15969 97.0955 5.3817C96.5371 5.60372 96.033 5.94314 95.6165 6.37714L96.8983 0H95.2459L91.9275 16.6814H93.5791L94.9569 9.6736C95.5468 6.72046 97.8282 6.57087 98.2779 6.57087C98.5465 6.54338 98.8176 6.57563 99.0718 6.66534C99.3268 6.75506 99.5588 6.90003 99.7509 7.08994C99.9439 7.27985 100.092 7.51006 100.186 7.76417C100.28 8.0183 100.317 8.2901 100.295 8.56027C100.286 8.91591 100.248 9.27027 100.179 9.61928L98.7777 16.6814H100.428L101.877 9.46594C101.952 9.09109 101.991 8.71004 101.992 8.3278C102.022 7.90185 101.962 7.4744 101.816 7.0735C101.669 6.67259 101.441 6.30729 101.144 6.00154C100.847 5.69581 100.49 5.45654 100.094 5.29944C99.6991 5.14234 99.2758 5.07096 98.8508 5.08999ZM76.5822 16.654L76.5769 16.6819H78.2056L80.4283 5.38164H78.8269L76.5822 16.654ZM46.7107 6.9653L46.7059 6.99598H52.2344L44.9454 15.3179L44.9421 15.3222L44.6684 16.6819H52.5188L52.8278 15.0676H46.9593L54.2696 6.74575L54.2728 6.74037L54.5476 5.38164H47.016L46.7107 6.9653ZM73.8705 5.24389C73.2823 5.22838 72.6987 5.34959 72.1649 5.59807C71.6312 5.84654 71.1618 6.21557 70.7934 6.67633L71.0462 5.40694L71.0505 5.38164H69.4437L67.2226 16.654L67.2183 16.6819H68.8492L70.2075 9.76727C70.5551 7.99417 71.9042 6.70647 73.4178 6.70647C73.7229 6.69911 74.025 6.76722 74.2976 6.90478C74.5703 7.04234 74.805 7.24515 74.9813 7.49534L74.9974 7.51579L76.3197 6.31903L76.3069 6.30289C76.0075 5.95199 75.6325 5.67424 75.2104 5.49075C74.7882 5.30726 74.33 5.22283 73.8705 5.24389ZM64.032 5.38164H65.6838L65.6795 5.40855L63.46 16.6819H61.8526L61.858 16.654L62.0707 15.4809C61.6597 15.927 61.1567 16.2778 60.597 16.5087C60.0373 16.7395 59.4342 16.845 58.8297 16.8176C58.411 16.8364 57.993 16.766 57.6032 16.611C57.2135 16.4559 56.8608 16.2198 56.5684 15.918C56.276 15.6162 56.0505 15.2557 55.9067 14.8601C55.7628 14.4645 55.704 14.0429 55.734 13.6228C55.7386 13.2791 55.7775 12.9368 55.8502 12.6009L55.869 12.4987L57.2733 5.38164H58.9031L57.5176 12.3491C57.4518 12.6934 57.4148 13.0426 57.4066 13.393C57.3858 13.661 57.424 13.9304 57.5184 14.182C57.6128 14.4335 57.7613 14.6611 57.9532 14.8485C58.1451 15.0358 58.3757 15.1785 58.6287 15.2662C58.8815 15.354 59.1507 15.3846 59.4167 15.356C59.8586 15.356 62.0888 15.2075 62.671 12.2926L64.032 5.38164Z"
       fill="white"
       id="path1"
       style="fill:#000000;fill-opacity:1" />
  </g>
  <defs
     id="defs1">
    <clipPath
       id="clip0_1291_13154">
      <rect
         width="102"
         height="17"
         fill="black"
         id="rect1" />
    </clipPath>
  </defs>
</svg>
