<?xml version="1.0" encoding="UTF-8" standalone="no"?>
<svg
   id="Layer_1"
   version="1.1"
   viewBox="0 0 450 92"
   sodipodi:docname="mapterhorn.svg"
   width="450"
   height="92"
   inkscape:version="1.3.2 (091e20ef0f, 2023-11-25)"
   xmlns:inkscape="http://www.inkscape.org/namespaces/inkscape"
   xmlns:sodipodi="http://sodipodi.sourceforge.net/DTD/sodipodi-0.dtd"
   xmlns="http://www.w3.org/2000/svg"
   xmlns:svg="http://www.w3.org/2000/svg">
  <sodipodi:namedview
     id="namedview16"
     pagecolor="#ffffff"
     bordercolor="#111111"
     borderopacity="1"
     inkscape:showpageshadow="0"
     inkscape:pageopacity="0"
     inkscape:pagecheckerboard="1"
     inkscape:deskcolor="#d1d1d1"
     inkscape:zoom="2.1478005"
     inkscape:cx="300.07442"
     inkscape:cy="149.92081"
     inkscape:window-width="2651"
     inkscape:window-height="1389"
     inkscape:window-x="26"
     inkscape:window-y="23"
     inkscape:window-maximized="0"
     inkscape:current-layer="Layer_1" />
  <!-- Generator: Adobe Illustrator 29.3.0, SVG Export Plug-In . SVG Version: 2.1.0 Build 146)  -->
  <defs
     id="defs1">
    <style
       id="style1">
      .st0 {
        fill: #9f0;
      }

      .st1 {
        fill: #ea0043;
      }

      .st2 {
        fill: #164ab7;
      }

      .st3 {
        fill: #41ff00;
      }

      .st4 {
        fill: #03d8a0;
      }

      .st5 {
        fill: #f4ff00;
      }

      .st6 {
        fill: #bf01ff;
      }

      .st7 {
        fill: #c1ff00;
      }

      .st8 {
        fill: #7f06ff;
      }

      .st9 {
        fill: #ff7b00;
      }

      .st10 {
        fill: #ff008f;
      }

      .st11 {
        fill: #5a20c2;
      }
    </style>
  </defs>
  <g
     id="g17"
     transform="translate(3.29773,1.72869)">
    <g
       id="g9"
       transform="translate(-78.19773,-105.97869)">
      <polygon
         points="252.7,174.5 252.7,134.9 244.2,134.9 231.7,165.9 219.1,134.9 210.6,134.9 210.6,174.5 217,174.5 217,145.8 228.7,174.5 234.6,174.5 246.3,145.7 246.3,174.5 "
         id="polygon1" />
      <path
         d="m 279.8,149.9 c -1,-1.7 -2.3,-3 -3.8,-3.9 -1.5,-0.9 -3.3,-1.4 -5.4,-1.4 -2.1,0 -5.1,0.7 -7.1,2 -2,1.3 -3.5,3.1 -4.6,5.4 -1.1,2.3 -1.6,4.9 -1.6,7.9 0,3 0.5,5.5 1.6,7.8 1.1,2.3 2.6,4.1 4.5,5.4 1.9,1.3 4.2,2 6.9,2 2.7,0 3.8,-0.5 5.5,-1.4 1.7,-0.9 3,-2.3 4.1,-4 v 4.8 h 5.9 v -29.3 h -6 z m -1.4,15 c -0.7,1.4 -1.6,2.5 -2.8,3.3 -1.2,0.8 -2.5,1.2 -4,1.2 -2.2,0 -4,-0.8 -5.5,-2.5 -1.5,-1.7 -2.2,-4 -2.2,-7.1 0,-3.1 0.7,-5.4 2.2,-7.1 1.5,-1.6 3.3,-2.5 5.5,-2.5 2.2,0 2.7,0.4 3.9,1.1 1.2,0.7 2.1,1.8 2.8,3.2 0.7,1.4 1.1,3.1 1.1,5.2 0,2.1 -0.3,3.7 -1,5.2 z"
         id="path1" />
      <path
         d="m 314.4,146.6 c -1.9,-1.3 -4.2,-2 -6.9,-2 -2.7,0 -3.8,0.5 -5.5,1.4 -1.7,1 -3,2.3 -4.1,4.1 v -5 H 292 V 185 h 6.4 v -15.1 c 1.1,1.6 2.4,2.9 3.9,3.7 1.6,0.9 3.3,1.3 5.2,1.3 1.9,0 4.9,-0.7 6.9,-2 1.9,-1.3 3.4,-3.1 4.5,-5.4 1.1,-2.3 1.6,-4.9 1.6,-7.8 0,-2.9 -0.5,-5.5 -1.6,-7.8 -1.1,-2.3 -2.6,-4.1 -4.5,-5.4 z m -2.7,20.3 c -1.5,1.6 -3.3,2.5 -5.5,2.5 -2.2,0 -2.7,-0.4 -3.9,-1.1 -1.2,-0.7 -2.1,-1.8 -2.8,-3.3 -0.7,-1.4 -1,-3.2 -1,-5.2 0,-2 0.3,-3.8 1,-5.2 0.7,-1.4 1.6,-2.5 2.8,-3.2 1.2,-0.7 2.5,-1.1 3.9,-1.1 2.2,0 4,0.8 5.5,2.5 1.5,1.7 2.2,4 2.2,7.1 0,3.1 -0.7,5.4 -2.2,7.1 z"
         id="path2" />
      <path
         d="m 335.2,136.5 h -6.4 v 8.7 h -6.2 v 5.5 h 6.2 v 14.7 c 0,2.1 0.4,3.9 1.2,5.4 0.8,1.5 1.9,2.5 3.3,3.2 1.4,0.7 3.1,1 4.9,1 1.8,0 1.9,0 2.8,-0.2 0.8,-0.2 1.7,-0.5 2.6,-0.9 v -5.6 c -0.6,0.3 -1.1,0.5 -1.8,0.6 -0.6,0.1 -1.3,0.2 -1.9,0.2 -1.5,0 -2.6,-0.4 -3.4,-1.2 -0.8,-0.8 -1.2,-2.1 -1.2,-4 v -13.2 h 8.6 v -5.5 h -8.6 v -8.7 z"
         id="path3" />
      <path
         d="m 371.9,149.4 c -1.2,-1.5 -2.8,-2.7 -4.6,-3.6 -1.8,-0.8 -3.8,-1.3 -6.1,-1.3 -2.3,0 -5.2,0.7 -7.3,2 -2.1,1.3 -3.8,3.1 -5,5.3 -1.2,2.3 -1.8,4.8 -1.8,7.7 0,2.9 0.6,5.7 1.8,8 1.2,2.3 2.9,4.1 5,5.4 2.1,1.3 4.7,1.9 7.5,1.9 2.8,0 6.5,-0.9 8.9,-2.8 2.4,-1.9 4,-4.4 4.7,-7.7 h -6.4 c -0.4,1.7 -1.2,3.1 -2.5,4 -1.3,1 -2.9,1.4 -4.8,1.4 -1.9,0 -3.1,-0.4 -4.2,-1.2 -1.2,-0.8 -2,-2 -2.6,-3.5 -0.4,-1.1 -0.7,-2.4 -0.8,-3.9 h 21.4 c 0.3,-2.4 0.2,-4.6 -0.4,-6.6 -0.6,-2 -1.5,-3.8 -2.7,-5.3 z m -18.2,7.9 c 0.1,-1.2 0.4,-2.2 0.8,-3.2 0.6,-1.5 1.5,-2.7 2.6,-3.5 1.1,-0.8 2.5,-1.2 4,-1.2 1.5,0 3.8,0.7 5,2.1 1.3,1.4 2,3.3 2.1,5.8 h -14.6 z"
         id="path4" />
      <path
         d="m 386.8,151.2 v -6 h -5.9 v 29.3 h 6.4 v -14.7 c 0,-2.2 0.5,-3.9 1.4,-5.2 0.9,-1.3 2.2,-2.1 3.8,-2.6 1.6,-0.5 3.5,-0.7 5.6,-0.5 v -6.7 c -2.4,0 -4.6,0.6 -6.6,1.7 -2.1,1.1 -3.6,2.7 -4.7,4.6 z"
         id="path5" />
      <path
         d="m 417.5,144.6 c -2,0 -3.7,0.5 -5.2,1.4 -1.4,0.9 -2.6,2.1 -3.6,3.6 V 135 h -6.4 v 39.6 h 6.4 v -16.3 c 0,-1.7 0.3,-3.1 0.9,-4.3 0.6,-1.2 1.3,-2 2.3,-2.7 1,-0.6 2.1,-0.9 3.2,-0.9 1.9,0 3.4,0.6 4.4,1.9 1,1.3 1.5,3.1 1.5,5.5 v 16.8 h 6.4 v -19 c 0,-3.5 -0.9,-6.2 -2.7,-8.1 -1.8,-1.9 -4.2,-2.8 -7.2,-2.8 z"
         id="path6" />
      <path
         d="m 456.6,149 c -1.3,-1.4 -2.8,-2.5 -4.6,-3.2 -1.8,-0.8 -3.7,-1.2 -5.8,-1.2 -2.1,0 -4.1,0.4 -5.8,1.2 -1.8,0.8 -3.3,1.8 -4.6,3.2 -1.3,1.4 -2.3,3 -3.1,4.8 -0.7,1.8 -1.1,3.8 -1.1,6 0,2.2 0.4,4.2 1.1,6 0.7,1.8 1.8,3.5 3.1,4.8 1.3,1.4 2.8,2.5 4.6,3.2 1.8,0.7 3.7,1.1 5.8,1.1 2.1,0 4,-0.4 5.8,-1.1 1.8,-0.7 3.3,-1.8 4.6,-3.2 1.3,-1.4 2.3,-3 3.1,-4.8 0.7,-1.8 1.1,-3.8 1.1,-6 0,-2.2 -0.4,-4.2 -1.1,-6 -0.7,-1.8 -1.8,-3.4 -3.1,-4.8 z m -3.5,15.9 c -0.7,1.4 -1.7,2.5 -2.9,3.3 -1.2,0.8 -2.5,1.1 -4,1.1 -1.5,0 -2.8,-0.4 -4,-1.1 -1.2,-0.8 -2.2,-1.8 -2.9,-3.3 -0.7,-1.4 -1.1,-3.1 -1.1,-5.1 0,-2 0.4,-3.7 1.1,-5.2 0.7,-1.4 1.7,-2.5 2.9,-3.2 1.2,-0.7 2.6,-1.1 4,-1.1 1.4,0 2.8,0.4 4,1.1 1.2,0.7 2.1,1.8 2.9,3.2 0.7,1.4 1.1,3.1 1.1,5.2 0,2.1 -0.4,3.7 -1.1,5.1 z"
         id="path7" />
      <path
         d="m 471.2,151.2 v -6 h -5.9 v 29.3 h 6.4 v -14.7 c 0,-2.2 0.5,-3.9 1.4,-5.2 0.9,-1.3 2.2,-2.1 3.8,-2.6 1.6,-0.5 3.5,-0.7 5.6,-0.5 v -6.7 c -2.4,0 -4.6,0.6 -6.6,1.7 -2.1,1.1 -3.6,2.7 -4.7,4.6 z"
         id="path8" />
      <path
         d="m 509.1,147.4 c -1.8,-1.9 -4.2,-2.8 -7.2,-2.8 -3,0 -3.8,0.5 -5.4,1.4 -1.6,0.9 -2.9,2.2 -3.9,3.8 v -4.6 h -5.9 v 29.3 h 6.4 v -16.3 c 0,-1.7 0.3,-3.1 0.9,-4.3 0.6,-1.2 1.3,-2 2.3,-2.7 1,-0.6 2.1,-0.9 3.2,-0.9 1.9,0 3.4,0.6 4.4,1.9 1,1.3 1.5,3.1 1.5,5.5 v 16.8 h 6.4 v -19 c 0,-3.5 -0.9,-6.2 -2.7,-8.1 z"
         id="path9" />
    </g>
    <g
       id="g16"
       transform="translate(-78.19773,-105.97869)">
      <line
         x1="142.3"
         y1="137.2"
         x2="146.60001"
         y2="131.3"
         id="line9" />
      <polyline
         class="st5"
         points="146.6 131.3 141.5 122.9 141.5 122.9 141.5 122.9 134.7 115.5 130.8 121.6 130 130.7 146.6 131.3"
         id="polyline9" />
      <polygon
         class="st7"
         points="142.3,137.2 123.4,138.9 130,130.7 146.6,131.3 "
         id="polygon9" />
      <polygon
         class="st4"
         points="130.7,170.6 108.3,164.9 88,176.6 102.9,176.6 113.1,184.5 120.7,176.7 "
         id="polygon10" />
      <polyline
         class="st3"
         points="130.7 170.6 108.3 164.9 118 151.9 140.8 151.4 140.8 151.4 130.7 170.6"
         id="polyline10" />
      <polygon
         class="st1"
         points="146.6,131.3 155.7,126.5 149.4,122.3 141.5,122.9 "
         id="polygon11" />
      <polygon
         class="st10"
         points="146.6,131.3 164.7,140.9 155.7,126.5 "
         id="polygon12" />
      <polygon
         class="st6"
         points="142.3,137.2 140.8,151.4 165,146.9 164.7,140.9 146.6,131.3 "
         id="polygon13" />
      <polygon
         class="st11"
         points="182.3,158.3 176.2,155.3 157.2,174.5 195.4,174.5 "
         id="polygon14" />
      <polyline
         class="st8"
         points="157.2 174.5 176.2 155.3 173.3 151.9 170.4 149.9 165 146.9 140.8 151.4 130.7 170.6 157.2 174.5"
         id="polyline14" />
      <polygon
         class="st2"
         points="120.7,176.7 113.1,184.5 126.3,182.7 140.4,182.7 157.2,174.5 130.7,170.6 "
         id="polygon15" />
      <polyline
         class="st9"
         points="141.5 122.9 141.5 122.9 149.4 122.3 146.6 118.5 134.7 115.5 141.5 122.9"
         id="polyline15" />
      <polygon
         class="st0"
         points="118,151.9 123.4,138.9 142.3,137.2 140.8,151.4 "
         id="polygon16" />
    </g>
  </g>
</svg>
